<?xml version="1.0" encoding="utf-8"?>
<!-- Generator: Adobe Illustrator 16.0.0, SVG Export Plug-In . SVG Version: 6.00 Build 0)  -->
<!DOCTYPE svg PUBLIC "-//W3C//DTD SVG 1.1//EN" "http://www.w3.org/Graphics/SVG/1.1/DTD/svg11.dtd">
<svg version="1.1" id="Layer_1" xmlns="http://www.w3.org/2000/svg" xmlns:xlink="http://www.w3.org/1999/xlink" x="0px" y="0px"
	 width="720px" height="556px" viewBox="0 0 720 556" enable-background="new 0 0 720 556" xml:space="preserve">
<path fill="#F2F2F2" d="M66,223.281c3.28,0.336,7.327,0.932,10.527,1.287c10.745,1.194,63.473,6.002,128.973,1.99
	c17.746-0.832,38.979-1.956,56,1.5c17.24,3.5,36.211,6.775,54.379,5.9c23.236-1.119,46.668-0.785,69.636-2.777
	c18.355-1.592,36.435,0.827,54.413,2.675l0.05-0.065c-17.995-1.848-36.091-4.273-54.463-2.68
	c-22.968,1.992-46.399,1.658-69.636,2.777c-16.343,0.787-33.33-1.786-49.128-4.859l0.009-0.038c0,0,29.207-33.242,63.457-41.788
	s82.25-21.955,104.25-30.705c20.618-8.201,67.98-36.822,73.848-40.385c-6.257-0.272-12.013-0.467-14.059-0.372
	C489.012,115.986,489,103.5,473.65,106s-17.15-4-39.323-6s-31.827,4-37.244,3.5s-3.083-9-20.083-9s-24,9-29.98,10.5
	S337,101,332,99.711s-7.5,4.789-14.344,4.789S306,102,300.947,100s-12.947,7-20.062,8S267,102,262,103s-3,11-15.654,12.75
	s-13.346-5.25-22.285,0S217,125.5,205.393,129S194,137.5,183.1,139.154S169.5,140,160.875,143.5s-11.375,11.5-22.563,13
	s-13.813,2-23.313,6.48s-3.5,7.52-13.938,13.953S85.625,179.25,81.714,183S80,195,74.066,202.387
	c-12.566,7.988-9.441,21.363-9.441,21.363L66,224.608V223.281z"/>
<g>
	<g>
		<g>
			<path fill="#CECECE" d="M481.681,117.509c-6.03,0.221-12.341,1.808-16.604,6.331c-1.195,1.268,1.635,1.326,2.348,0.569
				c3.633-3.853,8.783-4.982,13.896-5.169C482.813,119.186,483.676,117.437,481.681,117.509L481.681,117.509z"/>
		</g>
	</g>
	<g>
		<g>
			<path fill="#CECECE" d="M454.4,122.63c-1.235,0.712-1.935,1.399-2.861,2.537c-1.962,2.411-6.53,4.334-9.3,5.491
				c-7.455,3.112-14.687,2.692-22.5,1.951c-8.105-0.77-15.396,1.659-21.685,6.844c-0.688,0.567,2.076,0.31,2.641-0.155
				c6.245-5.15,12.721-5.852,20.479-5.103c4.637,0.448,9.197,0.635,13.799-0.2c3.934-0.714,7.917-2.273,11.508-3.991
				c1.9-0.909,3.7-2.086,5.507-3.168c1.649-0.987,2.485-2.78,4.111-3.716C457.774,122.155,455.13,122.21,454.4,122.63L454.4,122.63z
				"/>
		</g>
	</g>
	<g>
		<g>
			<path fill="#CECECE" d="M421.567,145.22c2.368-0.777,5.158,0.483,7.423,1.098c1.672,0.454,3.373,0.414,5.075,0.205
				c3.23-0.397,5.934-2.408,7.908-4.87c0.806-1.005-2.114-0.782-2.697-0.056c-5.504,6.864-11.541,0.032-18.094,2.183
				C419.493,144.335,419.844,145.786,421.567,145.22L421.567,145.22z"/>
		</g>
	</g>
	<g>
		<g>
			<path fill="#CECECE" d="M374.451,138.237c-1.419-2.351,2.898-3.109,4.453-3.307c1.703-0.217,3.487,0.631,5.131,0.996
				c3.422,0.759,7.029,0.819,9.177-2.375c1.03-1.532-1.683-1.954-2.424-0.852c-2.021,3.005-6.317,0.842-9.058,0.275
				c-1.684-0.348-3.272-0.119-4.936,0.262c-2.904,0.664-7.078,2.828-4.996,6.276C372.473,140.629,375.236,139.537,374.451,138.237
				L374.451,138.237z"/>
		</g>
	</g>
	<g>
		<g>
			<path fill="#CECECE" d="M416.948,117.684c2.912-3.292,10.14-0.722,14.081-0.707c3.308,0.012,6.425-0.915,9.222-2.624
				c1.272-0.778-1.663-0.566-2.252-0.206c-7.358,4.498-17.439-3.406-23.697,3.669C413.621,118.585,416.447,118.251,416.948,117.684
				L416.948,117.684z"/>
		</g>
	</g>
	<g>
		<g>
			<path fill="#CECECE" d="M358.074,134.112c-0.637-3.152,6.829-6.125,8.951-7.183c4.75-2.366,9.041-4.027,14.431-4.437
				c5.625-0.427,10.463-1.586,15.874-3.093c2.818-0.785,5.959-1.235,7.971-3.546c0.097-0.111-2.295-0.094-2.85,0.543
				c-1.616,1.856-5.732,2.325-8.094,3.064c-4.445,1.39-8.739,1.754-13.34,2.104c-3.598,0.273-6.882,1.265-10.187,2.624
				c-3.077,1.266-16.602,6.009-15.654,10.7C355.283,135.417,358.199,134.732,358.074,134.112L358.074,134.112z"/>
		</g>
	</g>
	<g>
		<g>
			<path fill="#CECECE" d="M359.816,112.587c4.786-3.375,11.016-2.002,16.427-3.555c1.759-0.505,1.283-2.322-0.486-1.814
				c-6.092,1.749-12.358,0.343-17.823,4.195C356.323,112.548,358.732,113.352,359.816,112.587L359.816,112.587z"/>
		</g>
	</g>
	<g>
		<g>
			<path fill="#CECECE" d="M316.781,121.315c4.148-1.636,9.668,0.04,14.111-0.53c2.986-0.383,5.545-1.971,7.864-3.787
				c1.227-0.96-1.676-0.708-2.263-0.248c-6.456,5.055-13.731,0.906-20.774,3.684C313.813,121.186,315.596,121.783,316.781,121.315
				L316.781,121.315z"/>
		</g>
	</g>
	<g>
		<g>
			<path fill="#CECECE" d="M329.738,109.873c3.985-1.535,7.78-3.994,12.279-2.725c1.11,0.313,3.43-1.313,1.715-1.797
				c-2.783-0.786-5.403-0.282-8.2,0.194c-2.585,0.439-4.618,1.906-7.021,2.831C326.641,109.098,328.319,110.419,329.738,109.873
				L329.738,109.873z"/>
		</g>
	</g>
	<g>
		<g>
			<path fill="#CECECE" d="M304.685,151.448c1.938-2.076,3.739-4.316,6.117-5.915c0.439-0.295,0.822-0.944,0.21-1.295
				c-0.613-0.352-1.511-0.144-2.063,0.228c-2.573,1.729-4.536,4.089-6.633,6.335C301.107,152.096,303.927,152.26,304.685,151.448
				L304.685,151.448z"/>
		</g>
	</g>
	<g>
		<g>
			<path fill="#CECECE" d="M320.442,142.242c8.097,0.017,16.629,0.078,23.124-5.458c0.66-0.563-2.088-0.282-2.633,0.182
				c-5.213,4.443-12.199,4.056-18.626,4.042C321.67,141.007,318.995,142.238,320.442,142.242L320.442,142.242z"/>
		</g>
	</g>
	<g>
		<g>
			<path fill="#CECECE" d="M341.47,150.055c1.996-0.971,3.28-2.744,5.254-3.778c3.229-1.691,7.213-1.516,10.732-1.505
				c1.184,0.004,3.049-1.789,1.087-1.795c-3.308-0.011-6.539-0.004-9.761,0.835c-1.468,0.382-2.805,0.872-4.149,1.576
				c-1.627,0.853-2.728,2.516-4.353,3.306C338.479,149.571,340.12,150.712,341.47,150.055L341.47,150.055z"/>
		</g>
	</g>
	<g>
		<g>
			<path fill="#CECECE" d="M324.33,160.289c9.987,0.327,19.6,5.142,29.029-0.259c1.684-0.964-0.949-1-1.718-0.56
				c-7.848,4.496-17.161-0.238-25.471-0.509C325.462,158.938,322.825,160.24,324.33,160.289L324.33,160.289z"/>
		</g>
	</g>
	<g>
		<g>
			<path fill="#CECECE" d="M338.035,175.345c2.685-1.773,6.436-0.856,9.456-1.022c3.194-0.175,6.255-0.719,9.341-1.552
				c1.746-0.471,1.334-2.013-0.413-1.541c-4.22,1.14-8.264,1.418-12.611,1.349c-2.706-0.043-5.307,0.318-7.592,1.827
				C334.574,175.489,337.069,175.982,338.035,175.345L338.035,175.345z"/>
		</g>
	</g>
	<g>
		<g>
			<path fill="#CECECE" d="M295.426,187.657c2.49-1.963,5.806-2.545,8.913-2.483c1.226,0.024,3.037-1.809,1.072-1.849
				c-4.073-0.082-8.562,0.685-11.837,3.267C292.028,187.811,294.431,188.442,295.426,187.657L295.426,187.657z"/>
		</g>
	</g>
	<g>
		<g>
			<path fill="#CECECE" d="M310.801,184.681c5.814,0.077,11.076-2.761,15.504-6.315c0.568-0.456-2.091-0.147-2.609,0.269
				c-3.146,2.524-6.806,4.99-10.996,4.935C312.134,183.562,309.409,184.663,310.801,184.681L310.801,184.681z"/>
		</g>
	</g>
	<g>
		<g>
			<path fill="#CECECE" d="M282.687,181.774c0.237-2.706,4.472-3.888,6.604-4.69c3.69-1.39,7.352-1.429,11.231-1.405
				c0.897,0.005,3.146-1.345,1.204-1.356c-5.125-0.031-9.484,0.381-14.283,2.188c-2.437,0.917-7.357,2.598-7.631,5.716
				C279.731,183.158,282.618,182.556,282.687,181.774L282.687,181.774z"/>
		</g>
	</g>
	<g>
		<g>
			<path fill="#CECECE" d="M266.768,174.069c1.177-2.816,7.634-2.744,10.171-3.104c4.705-0.668,9.491-0.595,14.211-1.13
				c6.982-0.791,13.337-3.167,18.948-7.375c1.575-1.181-0.751-2.314-1.947-1.418c-9.34,7.005-19.938,6.498-30.984,7.697
				c-3.992,0.433-11.357,0.568-13.185,4.943C263.323,175.259,266.243,175.324,266.768,174.069L266.768,174.069z"/>
		</g>
	</g>
	<g>
		<g>
			<path fill="#CECECE" d="M292.588,144.123c0.224-3.443,7.179-3.671,9.662-4.705c1.844-0.768,0.197-2.188-1.25-1.585
				c-3.404,1.417-11.013,1.542-11.338,6.545C289.568,145.815,292.508,145.351,292.588,144.123L292.588,144.123z"/>
		</g>
	</g>
	<g>
		<g>
			<path fill="#CECECE" d="M279.892,124.746c8.096-2.881,19.78,0.355,24.619-8.704c0.774-1.449-2.168-1.465-2.771-0.335
				c-3.983,7.458-15.516,4.603-22.381,7.046C277.639,123.365,278.13,125.373,279.892,124.746L279.892,124.746z"/>
		</g>
	</g>
	<g>
		<g>
			<path fill="#CECECE" d="M268.444,122.223c9.946-2.839,20.053-0.641,28.343-7.736c1.272-1.089-1.614-1.081-2.323-0.474
				c-7.171,6.139-17.672,4.27-26.407,6.764C266.331,121.27,266.708,122.718,268.444,122.223L268.444,122.223z"/>
		</g>
	</g>
	<g>
		<g>
			<path fill="#CECECE" d="M225.688,141.144c5.251-5.445,16.837-1.056,23.617-1.625c4.132-0.347,10.859-2.742,12.5-6.897
				c0.206-0.521-2.565-0.236-2.859,0.508c-3.338,8.453-17.038,4.431-23.928,4.272c-4.273-0.099-8.896,0.783-11.955,3.956
				C222.447,141.995,225.204,141.645,225.688,141.144L225.688,141.144z"/>
		</g>
	</g>
	<g>
		<g>
			<path fill="#CECECE" d="M221.061,130.52c0.828-4.713,18.201-7.328,21.456-4.376c0.632,0.573,3.289-0.519,2.717-1.037
				c-3.309-3-10.435-0.917-14.364-0.483c-3.676,0.406-11.882,1.814-12.681,6.357C218.04,131.829,220.921,131.313,221.061,130.52
				L221.061,130.52z"/>
		</g>
	</g>
	<g>
		<g>
			<path fill="#CECECE" d="M237.937,180.647c1.405-2.299,5.084-4.144,7.762-3.534c0.676,0.154,1.428-0.017,2.036-0.333
				c0.248-0.13,1-0.737,0.318-0.893c-4.381-0.998-10.613,1.33-12.988,5.216C234.752,181.612,237.466,181.416,237.937,180.647
				L237.937,180.647z"/>
		</g>
	</g>
	<g>
		<g>
			<path fill="#CECECE" d="M236.949,200.987c-1.167-2.679,2.602-4.47,4.503-5.59c5.587-3.292,10.873-4.482,17.411-3.505
				c5.564,0.831,10.509,0.975,15.718-1.339c1.746-0.775-0.993-0.652-1.662-0.354c-6.423,2.853-12.686-0.428-19.163-0.142
				c-3.138,0.139-5.895,0.816-8.764,2.083c-2.67,1.179-12.737,5.505-10.941,9.625C234.351,202.452,237.165,201.482,236.949,200.987
				L236.949,200.987z"/>
		</g>
	</g>
	<g>
		<g>
			<path fill="#CECECE" d="M186.249,206.945c3.74-0.099,6.062-1.298,9.01-3.541c4.15-3.158,12.304-8.799,17.781-6.545
				c1.235,0.508,3.379-1.264,1.669-1.968c-3.941-1.621-7.946-0.098-11.662,1.476c-2.083,0.882-4.349,1.794-6.21,3.088
				c-3.386,2.354-5.956,5.233-10.336,5.35C184.845,204.849,184.277,206.998,186.249,206.945L186.249,206.945z"/>
		</g>
	</g>
	<g>
		<g>
			<path fill="#CECECE" d="M205.326,205.893c3.133-0.134,6.198-0.128,9.324,0.096c2.762,0.197,5.23,0.498,7.944-0.17
				c1.772-0.436,1.321-2.07-0.438-1.637c-2.857,0.703-5.953,0.031-8.839-0.17c-2.537-0.176-5.106-0.013-7.643,0.096
				C204.16,204.172,203.333,205.978,205.326,205.893L205.326,205.893z"/>
		</g>
	</g>
	<g>
		<g>
			<path fill="#CECECE" d="M162.045,206.394c1.691-1.892,4.686-2.321,7.068-2.831c3.182-0.68,6.452-1.238,9.708-1.329
				c1.121-0.031,3.062-1.773,1.107-1.719c-4.082,0.114-8.101,0.842-12.088,1.695c-2.809,0.601-6.145,1.419-8.136,3.646
				C158.549,207.149,161.368,207.151,162.045,206.394L162.045,206.394z"/>
		</g>
	</g>
	<g>
		<g>
			<path fill="#CECECE" d="M165.401,196.687c2.68-1.802,5.444-3.195,7.799-5.438c2.089-1.99,3.791-3.776,7.02-3.841
				c1.731-0.035,3.481,0.28,5.219,0.297c1.095,0.01,3.084-1.638,1.123-1.657c-3.438-0.033-7.165-0.96-10.39,0.708
				c-2.07,1.071-3.633,2.382-5.298,4.007c-2.17,2.118-4.789,3.381-7.274,5.052C161.969,196.909,164.475,197.309,165.401,196.687
				L165.401,196.687z"/>
		</g>
	</g>
	<g>
		<g>
			<path fill="#CECECE" d="M142.207,187.598c0.187-2.253,11.667-0.503,13.653-0.256c5.745,0.717,11.043-0.135,15.073-4.525
				c1.195-1.302-1.622-1.443-2.365-0.633c-5.36,5.839-14.1,2.672-21.092,2.586c-2.225-0.027-7.914-0.115-8.182,3.132
				C139.184,189.224,142.115,188.708,142.207,187.598L142.207,187.598z"/>
		</g>
	</g>
	<g>
		<g>
			<path fill="#CECECE" d="M178.118,154.816c4.729-1.139,7.917-2.4,11.849-5.351c4.098-3.074,8.153-4.806,13.127-5.684
				c1.825-0.322,3.484-0.995,5.115-1.847c1.7-0.888-0.995-0.72-1.667-0.369c-4.282,2.237-9.38,1.675-13.74,3.859
				c-1.554,0.778-2.867,2.176-4.186,3.267c-3.217,2.661-6.669,4.264-10.733,5.243C176.177,154.345,176.428,155.223,178.118,154.816
				L178.118,154.816z"/>
		</g>
	</g>
	<g>
		<g>
			<path fill="#CECECE" d="M147.676,161.982c2.268-2.607,5-4.487,8-6.159c1.713-0.955,6.287-4.022,8.206-2.717
				c0.653,0.444,3.068-0.737,2.737-0.962c-2.543-1.729-6.611,0.358-8.978,1.508c-4.74,2.303-9.319,4.846-12.816,8.865
				C144.709,162.65,147.118,162.623,147.676,161.982L147.676,161.982z"/>
		</g>
	</g>
	<g>
		<g>
			<path fill="#CECECE" d="M102.769,194.448c3.402-7.032,13.253-7.096,19.85-9.255c6.432-2.105,12.731-5.178,16.981-10.595
				c1.151-1.467-1.583-2.049-2.449-0.944c-5.614,7.156-14.99,9.729-23.487,11.681c-5.603,1.288-11.035,3.247-13.683,8.719
				C99.24,195.584,102.174,195.676,102.769,194.448L102.769,194.448z"/>
		</g>
	</g>
	<g>
		<g>
			<path fill="#CECECE" d="M84.699,204.112c1.45-2.012,3.067-2.563,4.849-1.652c1.22,0.38,2.427,0.736,3.668,1.045
				c1.824,0.455,3.669,0.62,5.542,0.661c3.2,0.071,6.13-1.227,8.444-3.342c0.734-0.672-2.084-0.419-2.654,0.103
				c-5.826,5.327-11.569-1.546-17.549-0.544c-2.208,0.37-6.214,1.588-5.198,4.506C82.089,205.714,84.958,204.857,84.699,204.112
				L84.699,204.112z"/>
		</g>
	</g>
</g>
<path fill="#D4D4D4" d="M66,223.281c3.28,0.336,7.327,0.932,10.527,1.287c10.745,1.194,63.473,6.002,128.973,1.99
	c17.746-0.832,38.979-1.956,56,1.5c0.843,0.171,1.693,0.341,2.544,0.511l-0.061-0.341c-0.271-1.021-48.5-13.623-66.906-13.709
	s-43.094,3.836-69.807,4.586s-61.787-9.25-61.787-9.25L66,223.281z"/>
<path fill="#BFE0FF" d="M510.25,115.75c-0.427-0.011-0.883-0.007-1.335-0.005v0.005c0,0-52.448,32-74.448,40.75
	s-70,22.159-104.25,30.705s-63.457,41.788-63.457,41.788l-0.009,0.038c15.798,3.073,32.786,5.646,49.128,4.859
	c23.236-1.119,46.668-0.785,69.636-2.777c19.061-1.653,37.824,1.021,56.485,2.887c17.898,1.79,35.832,3.859,53.391,7.613
	c9.454,2.021,18.381,4.547,27.607,7.277c5.954,1.762,12.682,1.845,18.324,4.582c3.084,1.496,4.739,3.419,5.991,5.76l1.687-0.356
	l111-119.721C660,139.154,549.75,116.75,510.25,115.75z"/>
<path fill="#A16C28" d="M107.885,331.942c0,0-81.731,71.154-81.731,77.885s-4.807,19.231,19.231,21.635s22.115-4.808,39.423,0
	s4.327,6.731,20.673,7.692s18.27-6.25,35.096-6.25s29.807,16.826,50.48,15.384s16.346-4.807,34.615-2.884s2.404,8.654,28.846,9.615
	s17.308-14.423,54.808-13.942s59.616,16.347,77.885,17.308s23.557-13.461,43.269-11.058s8.654,15.386,24.52,16.827
	s12.499-7.692,28.846-5.77s22.116,11.538,34.616,11.058s20.673-24.038,39.903-24.038s8.653,3.847,17.308,3.365
	s21.154-35.096,28.847-40.385s9.614-26.443,21.153-33.654s9.615-0.961,15.865-12.98s-0.961-23.557,6.731-35.096
	s37.02-25.962,47.115-41.347s-27.404-25.481-58.654-27.885s-460.577,47.115-460.577,47.115L107.885,331.942z"/>
<g>
	
		<line fill="none" stroke="#81C2FC" stroke-width="2" stroke-linecap="round" stroke-miterlimit="10" x1="378.334" y1="190.375" x2="399.375" y2="182"/>
	
		<line fill="none" stroke="#81C2FC" stroke-width="2" stroke-linecap="round" stroke-miterlimit="10" x1="372.596" y1="196.25" x2="410.32" y2="184.14"/>
	
		<line fill="none" stroke="#81C2FC" stroke-width="2" stroke-linecap="round" stroke-miterlimit="10" x1="412.334" y1="212.582" x2="442.334" y2="202.688"/>
	
		<line fill="none" stroke="#81C2FC" stroke-width="2" stroke-linecap="round" stroke-miterlimit="10" x1="421.375" y1="215.913" x2="470.007" y2="198.542"/>
	
		<line fill="none" stroke="#81C2FC" stroke-width="2" stroke-linecap="round" stroke-miterlimit="10" x1="452.334" y1="209.855" x2="475.624" y2="202.139"/>
	
		<line fill="none" stroke="#81C2FC" stroke-width="2" stroke-linecap="round" stroke-miterlimit="10" x1="537" y1="231.667" x2="553" y2="225.644"/>
	
		<line fill="none" stroke="#81C2FC" stroke-width="2" stroke-linecap="round" stroke-miterlimit="10" x1="537" y1="236.435" x2="570" y2="226.192"/>
	
		<line fill="none" stroke="#81C2FC" stroke-width="2" stroke-linecap="round" stroke-miterlimit="10" x1="592.334" y1="176.934" x2="626.667" y2="164.301"/>
	
		<line fill="none" stroke="#81C2FC" stroke-width="2" stroke-linecap="round" stroke-miterlimit="10" x1="603.895" y1="176.934" x2="626.667" y2="169.944"/>
	
		<line fill="none" stroke="#81C2FC" stroke-width="2" stroke-linecap="round" stroke-miterlimit="10" x1="483.582" y1="152.953" x2="512" y2="143.753"/>
	
		<line fill="none" stroke="#81C2FC" stroke-width="2" stroke-linecap="round" stroke-miterlimit="10" x1="491.854" y1="154.375" x2="545" y2="136"/>
	
		<line fill="none" stroke="#81C2FC" stroke-width="2" stroke-linecap="round" stroke-miterlimit="10" x1="523" y1="149.375" x2="545" y2="141.75"/>
</g>
<g>
	<path fill="#85C2FB" d="M547.788,260.17c-1.315-2.772-2.979-5.007-6.466-6.699c-5.643-2.737-12.37-2.82-18.324-4.582
		c-9.227-2.73-18.153-5.256-27.607-7.277c-17.559-3.754-35.492-5.823-53.391-7.613c-18.661-1.866-37.425-4.54-56.485-2.887
		c-22.968,1.992-46.399,1.658-69.636,2.777c-18.167,0.875-37.139-2.4-54.379-5.9c-17.021-3.456-38.254-2.332-56-1.5
		c-65.5,4.012-118.228-0.796-128.973-1.99c-3.2-0.355-7.248-0.951-10.527-1.287v162.356l2-0.067c5.5,2,15.5,1,22,1
		c12.5,0,23.5,2.5,36,1.5c15-1.5,30-1.5,44.5-5.5c13.5-3.5,25-6,39-6.5c22.5-0.5,44-1.5,66,2.5c21.5,3.5,41.5,9.924,63,11.424
		c20.5,1.5,39.5,1.576,60,0.076c22-2,43.5-1.833,65.5-1.833c14,0,29,0.333,42.5,2.833c13.928,2.401,27.396,9.867,41.288,13.999
		V260.17z"/>
	<g>
		<path fill="#85C2FB" d="M549.237,259.782c-2.493-4.886-6.378-7.093-11.542-8.596c-3.313-0.964-6.811-1.359-10.19-2.026
			c-4.216-0.832-8.339-2.303-12.471-3.472c-15.406-4.358-31.068-7.304-46.929-9.425c-15.426-2.063-30.959-3.563-46.451-5.031
			c-15.864-1.503-31.178-0.803-47.026,0.137c-16.665,0.989-33.372,1.037-50.053,1.621c-16.687,0.584-32.651-0.248-49.13-3.11
			c-14.015-2.435-27.318-4.756-41.606-4.826c-14.455-0.07-28.887,1.054-43.318,1.679c-41.213,1.786-82.35,0.417-123.326-4.071
			c-0.532-0.058-2.643,0.132-2.643,0.938c0,49.474,0,98.948,0,148.422c0,4.645,0,9.289,0,13.935c0,0.171,0.429,0.188,0.505,0.187
			c4.124-0.14,8.395,1.146,12.625,1.183c6.869,0.058,13.642-0.346,20.516,0.125c7.117,0.487,14.181,1.335,21.325,1.358
			c7.545,0.025,15.173-1.022,22.694-1.591c6.947-0.524,13.864-1.254,20.719-2.513c7.792-1.432,15.395-3.832,23.162-5.417
			c16.108-3.289,32.701-3.151,49.075-3.201c16.394-0.05,32.446,1.526,48.532,4.672c15.368,3.004,30.51,7.033,46.071,8.993
			c31.664,3.989,63.106,0.233,94.772-0.708c20.834-0.62,41.945-0.963,62.754,0.349c10.241,0.645,20.336,2.127,30.096,5.343
			c9.866,3.249,19.258,7.758,29.197,10.813c0.514,0.158,2.643-0.2,2.643-0.938c0-47.343,0-94.687,0-142.029
			C549.237,261.648,549.237,260.715,549.237,259.782c0-0.435-2.898-0.029-2.898,0.776c0,47.343,0,94.687,0,142.03
			c0,0.934,0,1.866,0,2.8c0.881-0.313,1.762-0.626,2.643-0.938c-14.523-4.465-27.992-11.64-43.057-14.313
			c-14.762-2.62-29.92-2.539-44.858-2.546c-15.496-0.007-30.992,0.01-46.474,0.765c-16.679,0.813-33.203,2.313-49.929,2.118
			c-16.516-0.193-32.917-1.375-49.142-4.541c-15.47-3.019-30.723-6.986-46.354-9.166c-15-2.091-30.226-1.973-45.332-1.657
			c-14.385,0.3-28.284,1.131-42.37,4.258c-7.236,1.606-14.333,3.733-21.651,4.956c-8.479,1.417-17.123,1.817-25.684,2.464
			c-7.883,0.595-15.523,1.006-23.424,0.408c-7.456-0.563-14.858-1.391-22.349-1.231c-6.014,0.129-12.168,0.718-18.082-0.673
			c-0.662-0.155-2.827-0.794-2.827-0.12c0-0.168,0-0.336,0-0.504c0-2.531,0-5.063,0-7.594c0-28.007,0-56.015,0-84.021
			c0-23.41,0-46.819,0-70.229c-0.881,0.313-1.762,0.625-2.643,0.938c41.375,4.531,82.832,5.804,124.448,4.097
			c15.404-0.632,30.776-1.809,46.204-1.625c15.376,0.183,29.968,3.63,45.075,5.978c15.431,2.398,30.483,2.308,46.033,1.798
			c15.6-0.511,31.208-0.653,46.796-1.514c15.65-0.864,30.749-1.529,46.403-0.113c15.331,1.388,30.688,2.998,45.952,4.981
			c14.605,1.898,29.053,4.601,43.281,8.418c6.505,1.746,12.883,3.919,19.519,5.123c7.195,1.306,14.226,2.607,17.821,9.655
			C546.692,261.25,549.455,260.208,549.237,259.782z"/>
	</g>
</g>
<polygon fill="#419FFF" points="660,139.154 660,275 547.788,404.999 549,258.875 "/>
<g>
	<path fill="#0084FF" d="M284.487,233.769c1.392,0.771,2.919,1.318,4.299,2.125c2.037,1.191,4.107,2.325,6.214,3.386
		c4.701,2.367,9.747,4.636,15,5.387c10.5,1.5,35.333,2.5,43.5,1.167c8.812-1.439,15.216-8.831,23.423-11.417
		c2.279-0.718,4.553-1.192,6.86-1.813c1.586-0.426,4.298-1.062,4.037-3.258c-0.004-0.039-3.95-0.284-4.306-0.307
		c-1.532-0.101-3.001-0.058-4.497,0.298c-1.118,0.265-2.264,0.095-3.423,0.09c-2.012-0.008-4.023,0.032-6.034,0.079
		c-6.044,0.14-12.087,0.374-18.128,0.621c-7.425,0.302-14.85,0.64-22.272,0.993c-7.232,0.343-14.464,0.702-21.695,1.07
		c-3.572,0.182-7.144,0.367-10.715,0.554c-1.49,0.078-2.457,0.006-3.833-0.376c-1.492-0.415-3.052,0.318-4.563,0.029
		c-1.327-0.254-2.307-1.053-3.74-1.062c-1.347-0.009-2.729-0.077-4.07,0.017c0.885,0.574,1.805,0.949,2.656,1.593
		C283.609,233.252,284.041,233.522,284.487,233.769z"/>
	<g>
		<path fill="#0084FF" d="M283.654,234.759c10.146,5.082,19.172,10.382,30.667,11.54c9.459,0.953,19.021,1.285,28.525,1.23
			c8.282-0.048,15.129-1.044,22.311-5.519c5.643-3.515,10.665-6.335,17.172-7.95c2.868-0.711,6.607-1.326,6.96-4.819
			c0.058-0.566-0.472-0.906-0.972-0.964c-6.76-0.79-13.663,0.027-20.446,0.194c-10.392,0.257-20.78,0.748-31.164,1.222
			c-10.898,0.497-21.794,1.041-32.69,1.6c-2.381,0.123-4.762,0.247-7.143,0.371c-1.811,0.094-3.56-0.687-5.343-0.489
			c-3.495,0.389-7.2-1.034-10.864-0.904c-0.736,0.026-2.436,1.237-1.238,1.925c1.341,0.77,2.642,1.583,3.943,2.419
			c1.097,0.704,3.626-0.795,2.229-1.692c-1.301-0.835-2.602-1.649-3.943-2.419c-0.413,0.642-0.825,1.284-1.238,1.925
			c2.475-0.087,4.71,0.212,7.102,0.957c1.483,0.461,3.433-0.058,4.899,0.051c3.822,0.285,7.472,0.214,11.349,0.015
			c10.277-0.53,20.555-1.036,30.834-1.515c9.795-0.456,19.593-0.885,29.394-1.203c7.61-0.247,15.77-1.2,23.325-0.318
			c-0.324-0.321-0.648-0.643-0.972-0.964c-0.292,2.888-10.39,4.133-12.75,5.117c-4.011,1.673-7.607,4.419-11.313,6.645
			c-7.188,4.319-14.828,4.203-22.928,4.156c-8.374-0.048-16.776-0.479-25.108-1.318c-10.75-1.083-19.479-6.538-28.934-11.273
			C284.105,232.17,281.997,233.929,283.654,234.759z"/>
	</g>
</g>
<g>
	<path fill="#0084FF" d="M329.994,247.715c0.935,3.089,2.958,5.17,5.302,7.284c3.975,3.583,5.707,7.143,5.254,12.627
		c-0.05,0.609,0.474,0.839,0.97,0.955c3.122,0.728,6.098,1.055,5.273,4.78c-0.587,2.654-1.568,5.338-1.36,8.1
		c0.151,2.009,1.034,3.111,2.294,4.611c3.1,3.692,3.487,7.484,2.923,12.081c-0.373,3.045,0.159,5.555,1.751,8.169
		c1.442,2.368,3.961,3.659,5.175,6.237c1.587,3.37-0.076,7.117,0.302,10.636c0.357,3.325,2.319,6.754,3.169,10.007
		c1.883,7.207-1.41,14.159,1.052,21.212c0.853,2.442,2.454,4.403,3.471,6.762c1.226,2.84,2.054,5.811,3.225,8.677
		c2.888,7.069,6.815,21.688,16.367,21.856c1.667,0.029,2.211-2.107,0.252-2.143c-5.657-0.099-9.27-9.859-11.07-13.985
		c-2.281-5.229-3.938-10.689-6.187-15.904c-1.103-2.554-2.681-4.667-3.613-7.339c-1.2-3.437-0.445-6.93,0.098-10.408
		c0.56-3.587-0.159-7.45-1.063-10.907c-0.964-3.688-3.092-7.056-2.822-10.97c0.422-6.128-0.052-9.08-4.438-13.463
		c-3.325-3.32-2.874-7.259-2.393-11.533c0.37-3.284-0.706-5.824-2.341-8.599c-1.448-2.455-3.303-3.438-3.2-6.545
		c0.092-2.797,1.174-5.418,1.612-8.154c0.634-3.96-4.778-4.674-7.479-5.304c0.323,0.318,0.646,0.637,0.97,0.955
		c0.361-4.371-0.366-8.115-3.262-11.494c-2.614-3.05-6.103-4.911-7.335-8.979C332.483,245.591,329.589,246.38,329.994,247.715z"/>
</g>
<g>
	<g>
		<path fill="#0084FF" d="M229.097,378.4c27.404,0.129,54.269,5.704,81.229,9.961c27.157,4.287,53.859,5.233,81.283,3.485
			c28.987-1.848,57.669-4.61,86.666-1.298c26.304,3.004,54.034,9.798,77.116,23.125c2.156,1.245,9.254-2.33,8.197-2.939
			c-22.384-12.924-49.033-19.655-74.466-23.057c-28.088-3.757-55.984-1.958-84.128,0.078c-14.419,1.043-28.846,1.91-43.31,1.679
			c-14.833-0.236-29.565-2.128-44.206-4.401c-27.476-4.269-54.81-9.993-82.731-10.125c-2.078-0.01-4.369,0.549-6.147,1.647
			C227.228,377.404,227.418,378.393,229.097,378.4L229.097,378.4z"/>
	</g>
</g>
<g>
	<path fill="#00FCCA" d="M298.263,121.273c-0.548,4.956-5.335,6.184-7.335,10.173c-1.337,2.666-6.009,1.298-8.647,1.958
		c-3.13,0.782-5.839,2.903-8.387,4.759c-0.765,0.557-1.556,1.056-2.358,1.53c0.1-0.177,0.202-0.35,0.292-0.54
		c-7.692,0.961-14.904,4.808-23.077,3.846c-3.846-0.481-6.25-2.885-10.096-2.885c-3.365,0-8.173,3.846-11.539,5.289
		c-11.538,4.327-24.519,7.692-34.615,12.981l-2.404,2.884c0.961,0.481,1.923,0.481,2.404,0.962
		c-5.769,3.365-12.019,12.5-18.75,13.461c8.173,6.73,26.442-9.135,36.539-6.731c0,1.304,0.385,2.604,0.106,3.552
		c-5.132,3.14-5.523,11.916-12.56,12.965c-4.985,0.744-8.869-1.146-13.47,1.709c-4.157,2.579-4.561,8.512-5.821,12.695
		c-0.353,1.17,2.585,0.781,2.913-0.306c1.97-6.539,2.124-13.024,11.466-12.402c3.165,0.211,5.848,0.146,8.805-1.073
		c5.405-2.229,6.182-13.168,12.35-12.861c0.629,0.031,1.412-0.427,1.761-0.894c0.849-0.015,1.709-0.021,2.624-0.021
		c-0.48,1.442,0.481,2.884,0,4.327c6.25-0.481,15.866-4.327,22.116-5.769c1.736-0.434,3.502-0.899,5.277-1.377
		c6.801,4.554,1.907,16.083,0.223,22.192c-1.945,7.051,2.072,9.775,7.334,13.707c1.098,0.82,3.589-0.711,2.217-1.736
		c-3.004-2.245-7.296-4.467-7.247-8.703c0.042-3.549,1.864-7.205,2.749-10.635c1.389-5.376,1.912-11.837-2.124-15.696
		c5.074-1.415,10.197-2.942,15.129-4.483c-5.77-0.481-7.212-6.25-4.327-10.096c-3.365,0.961-7.692,0.961-11.058,0
		c2.07-10.349,14.469-7.161,20.64-11.904c0.438-0.17,0.887-0.323,1.318-0.504c2.404-1.009,4.536-2.747,6.622-4.267
		c3.198-2.33,6.46-2.815,10.28-2.649c2.188,0.095,4.771-1.269,5.899-3.103c2.429-3.948,7.104-6.188,7.651-11.134
		C301.204,120.099,298.361,120.384,298.263,121.273z"/>
	<g>
		<path fill="#00FCCA" d="M296.818,121.469c-0.633,3.206-2.666,4.857-4.926,6.997c-0.636,0.602-1.16,1.264-1.697,1.952
			c-1.475,1.89-3.079,1.999-5.337,2.004c-5.612,0.013-9.724,4.128-14.209,6.888c0.743,0.129,1.486,0.259,2.229,0.388
			c0.098-0.18,0.195-0.359,0.292-0.54c0.4-0.738-0.619-0.833-1.13-0.755c-3.995,0.602-7.847,1.702-11.75,2.724
			c-6.48,1.696-11.308,1.038-17.464-1.197c-5.285-1.919-10.045,1.463-14.427,3.987c-7.778,4.479-17.667,6.227-26.083,9.367
			c-5.35,1.997-9.928,3.624-13.561,7.982c-0.202,0.242-0.121,0.573,0.182,0.678c0.835,0.237,1.637,0.558,2.404,0.962
			c0.091-0.353,0.182-0.706,0.273-1.059c-6.07,3.845-10.756,11.65-18.043,13.173c-0.254,0.053-1.814,0.757-1.169,1.226
			c8.856,6.431,22.907-4.015,31.583-6.292c1.31-0.343,4.797-1.441,4.945,0.685c0.149,2.145-1.721,3.329-2.86,4.849
			c-3.323,4.433-3.79,9.283-10.839,9.401c-5.924,0.1-12.827-0.207-15.578,6.394c-0.953,2.287-5.336,12.568,1.095,9.754
			c2.294-1.004,2.413-2.507,3.039-4.887c1.445-5.491,3.648-8.447,10.106-8.119c6.085,0.31,10.703-1.687,13.767-6.937
			c1.531-2.624,2.794-6.638,6.206-7.101c2.85-0.387,3.488-1.682,3.151,2.856c-0.047,0.634,0.801,0.602,1.233,0.556
			c5.441-0.577,10.666-2.353,15.867-3.968c2.776-0.862,5.569-1.608,8.386-2.324c3.865-0.983,4.904,1.695,5.357,5.203
			c1.218,9.435-8.334,18.515,0.106,26.44c2.133,2.003,4.577,4.494,7.653,3.234c4.299-1.761-0.7-4.292-2.505-5.686
			c-6.038-4.663-1.619-11.662-0.212-17.531c1.227-5.121,1.116-10.624-2.546-14.689c-0.39,0.409-0.779,0.817-1.169,1.226
			c5.064-1.423,10.105-2.922,15.129-4.483c0.517-0.161,2.102-1.2,0.717-1.422c-4.948-0.795-6.457-5.327-3.882-9.342
			c0.58-0.903-1.104-0.774-1.522-0.676c-2.885,0.682-5.559,0.712-8.485,0.276c-2.171-0.324,1.436-4.466,1.806-4.812
			c2.114-1.977,5.584-2.401,8.308-2.983c4.749-1.014,8.938-2.829,13.107-5.332c0.93-0.559,1.985-1.38,2.859-2.02
			c3.136-2.295,6.393-2.72,10.176-3.029c1.832-0.15,3.841-0.554,5.329-1.742c2.327-1.857,3.958-4.506,6.04-6.651
			c1.957-2.016,3.307-4.023,3.838-6.791c0.048-0.251-0.083-0.364-0.285-0.479c-1.583-0.905-4.377,0.075-5.399,1.447
			c-0.75,1.005,2.154,0.719,2.684,0.008c-0.715,0.959-0.95,2.638-1.714,3.75c-0.882,1.284-2.095,2.351-3.174,3.464
			c-0.652,0.673-1.243,1.373-1.836,2.098c-2.094,2.559-5.12,3.036-8.208,3.438c-2.483,0.323-4.607,0.979-6.853,2.082
			c-0.875,0.43-2.116,1.424-2.9,2.003c-2.021,1.493-4.427,2.28-6.416,3.657c-7.149,4.948-18.547,1.964-21.198,12.484
			c-0.09,0.357,0.277,0.49,0.548,0.554c4.09,0.966,8.053,0.886,12.135-0.078c-0.507-0.226-1.015-0.451-1.522-0.676
			c-3.128,4.877-0.927,9.935,4.772,10.85c0.239-0.474,0.478-0.948,0.717-1.422c-5.023,1.562-10.064,3.06-15.129,4.483
			c-0.361,0.102-1.7,0.636-1.169,1.226c3.92,4.352,3.299,10.031,2.028,15.339c-1.109,4.627-4.233,9.479-1.777,14.151
			c0.76,1.445,2.212,2.502,3.471,3.475c0.938,0.724,1.939,1.375,2.9,2.069c-0.825-0.596-1.834-1.116-2.683-1.786
			c-4.493-3.543-5.138-7.465-3.518-12.816c1.513-4.998,6.219-17.641-1.063-20.789c-0.871-0.377-2.446,0.297-3.111,0.475
			c-2.911,0.777-5.832,1.481-8.719,2.346c-5.434,1.628-10.838,3.646-16.511,4.248c0.411,0.186,0.822,0.371,1.233,0.556
			c0.107-1.446-0.105-2.897,0-4.327c0.036-0.483-0.476-0.582-0.869-0.581c-6.63,0.025-10.38,2.774-13.538,8.59
			c-2.125,3.913-3.625,6.026-8.969,6.346c-2.482,0.149-4.878-0.242-7.353,0.187c-2.87,0.497-5.447,2.36-6.65,5.033
			c-0.856,1.903-1.382,3.886-1.912,5.899c-0.782,2.971,0.803-3.549,0.994-4.228c2.463-8.782,10.875-5.991,17.581-7.49
			c3.408-0.762,5.593-3.786,7.264-6.586c1.277-2.139,2.37-4.268,4.233-5.978c1.645-1.509,1.21-2.448,1.05-4.751
			c-0.016-0.231-0.388-0.331-0.552-0.362c-4.918-0.916-9.809,0.902-14.332,2.665c-5.902,2.3-15.702,8.658-21.754,4.263
			c-0.39,0.409-0.779,0.817-1.169,1.226c8.178-1.709,12.75-9.501,19.457-13.75c0.365-0.231,0.9-0.764,0.273-1.059
			c-0.929-0.437-2.391-0.081-1.599-1.031c1.345-1.615,1.722-1.982,3.819-2.993c3.471-1.671,7.103-3.014,10.721-4.325
			c7.27-2.635,15.128-4.437,22.123-7.757c3.356-1.593,6.629-4.792,10.601-4.451c3.082,0.265,5.701,2.532,8.849,2.777
			c8.167,0.636,15.496-2.674,23.441-3.871c-0.377-0.252-0.754-0.504-1.13-0.755c-0.098,0.18-0.195,0.359-0.292,0.54
			c-0.635,1.173,1.792,0.657,2.229,0.388c3.93-2.418,7.464-6.095,12.4-6.106c1.747-0.004,4.116,0.116,5.666-0.896
			c2.195-1.431,3.417-3.975,5.386-5.768c1.971-1.793,3.312-3.588,3.833-6.231C299.912,120.043,297.001,120.537,296.818,121.469z"/>
	</g>
</g>
<path fill="#00FCCA" d="M495.715,185.455c-0.731,0.408-1.555,0.704-2.431,0.938c-1.869-0.028-3.597,0.275-5.266,0.916
	c-3.686,0.55-7.215,1.352-8.615,4.889c-0.601-0.243-1.247-0.423-1.921-0.586c-0.599-0.146-1.25-0.248-1.896-0.373
	c-0.059-0.141-0.179-0.276-0.395-0.392c-2.328-1.256-1.386-4.447-1.054-6.571c0.364-2.339,0.642-4.672-0.508-6.83
	c-0.642-1.202-3.387-0.087-2.646,1.303c1.544,2.896-0.719,7.394-0.215,10.694c-0.454,0.121-0.893,0.332-1.14,0.577
	c-0.607,0.459-1.447,1.09-2.21,1.826c-6.438,1.041-14.334,4.722-10.984,11.639c0.565,1.167,3.415,0.291,2.898-0.776
	c-2.378-4.91,1.964-7.673,6.479-8.733c-0.322,0.74-0.384,1.51,0.021,2.267c0.752,1.405,2.757,1.962,4.172,2.3
	c2.125,0.508,4.291,0.733,6.476,0.67c2.702-0.077,7.627-1.195,5.538-4.84c-0.108-0.189-0.228-0.358-0.352-0.521
	c0.122-0.137,0.211-0.291,0.245-0.462c0.044-0.219,0.121-0.406,0.188-0.604c2.218-1.256,4.218-2.951,6.488-3.932
	c3.021-0.504,6.349-0.635,8.387-1.771C498.701,186.122,497.132,184.665,495.715,185.455z"/>
<path fill="#00FCCA" d="M546.821,157.702c-4.316,3.252-12.865,0.812-16.05,5.868c-1-0.81-2.193-1.455-3.325-1.92
	c-0.676-3.091-3.439-4.246-6.498-4.261c-0.007-1.174-0.369-2.358-0.067-3.477c0.148-0.547-0.554-0.735-0.926-0.794
	c-2.522-0.404-5.015-0.128-7.008,1.566c-1.326,1.127,1.538,1.381,2.375,0.67c0.696-0.591,1.641-0.61,2.539-0.507
	c-0.098,1.218,0.347,2.444,0.104,3.683c-0.137,0.692,0.83,0.833,1.296,0.789c2.081-0.202,3.7,0.294,4.617,1.584
	c-1.766,0.039-3.48,0.722-4.259,2.391c-0.233,0.22-0.339,0.487-0.203,0.767c0.059,0.122,0.116,0.248,0.173,0.375
	c-2.453,0.366-4.902,0.988-7.258,1.567c-1.568,0.385-6.063,0.968-6.784,2.829c-0.583,1.507,2.321,1.373,2.752,0.261
	c-0.169,0.436,0.119,0.066,0.495-0.083c0.502-0.2,1.036-0.339,1.552-0.494c1.494-0.448,3.015-0.806,4.534-1.155
	c1.824-0.418,3.699-0.844,5.58-1.077c0.278,0.497,0.602,0.956,1.023,1.308c1.825,1.527,4.482,1.995,6.801,2.039
	c2.271,0.043,5.781-0.973,4.374-3.821c0.062-0.084,0.115-0.175,0.147-0.276c1.768-5.508,11.835-3.365,15.949-6.465
	C550.328,157.883,547.989,156.821,546.821,157.702z"/>
<g>
	<line fill="none" stroke="#A0D4FF" stroke-width="2" stroke-miterlimit="10" x1="291.526" y1="366.845" x2="318" y2="346.595"/>
	<line fill="none" stroke="#A0D4FF" stroke-width="2" stroke-miterlimit="10" x1="327.415" y1="351.888" x2="348.02" y2="336.127"/>
	<line fill="none" stroke="#A0D4FF" stroke-width="2" stroke-miterlimit="10" x1="300.947" y1="366.648" x2="347.02" y2="331.408"/>
	<line fill="none" stroke="#A0D4FF" stroke-width="2" stroke-miterlimit="10" x1="383.846" y1="336.127" x2="410.32" y2="315.877"/>
	<line fill="none" stroke="#A0D4FF" stroke-width="2" stroke-miterlimit="10" x1="419.734" y1="321.17" x2="440.34" y2="305.409"/>
	<line fill="none" stroke="#A0D4FF" stroke-width="2" stroke-miterlimit="10" x1="393.268" y1="335.931" x2="439.34" y2="300.69"/>
	
		<line fill="none" stroke="#A0D4FF" stroke-width="2" stroke-miterlimit="10" x1="437.762" y1="359.018" x2="464.236" y2="338.768"/>
	<line fill="none" stroke="#A0D4FF" stroke-width="2" stroke-miterlimit="10" x1="473.65" y1="344.061" x2="494.256" y2="328.3"/>
	
		<line fill="none" stroke="#A0D4FF" stroke-width="2" stroke-miterlimit="10" x1="447.184" y1="358.821" x2="493.256" y2="323.581"/>
	
		<line fill="none" stroke="#A0D4FF" stroke-width="2" stroke-miterlimit="10" x1="271.464" y1="295.719" x2="297.939" y2="275.468"/>
	<line fill="none" stroke="#A0D4FF" stroke-width="2" stroke-miterlimit="10" x1="307.353" y1="280.762" x2="327.958" y2="265"/>
	
		<line fill="none" stroke="#A0D4FF" stroke-width="2" stroke-miterlimit="10" x1="280.886" y1="295.521" x2="326.958" y2="260.282"/>
	
		<line fill="none" stroke="#A0D4FF" stroke-width="2" stroke-miterlimit="10" x1="188.173" y1="288.123" x2="214.647" y2="267.872"/>
	
		<line fill="none" stroke="#A0D4FF" stroke-width="2" stroke-miterlimit="10" x1="224.062" y1="273.166" x2="244.667" y2="257.404"/>
	
		<line fill="none" stroke="#A0D4FF" stroke-width="2" stroke-miterlimit="10" x1="197.595" y1="287.926" x2="243.667" y2="252.686"/>
	
		<line fill="none" stroke="#A0D4FF" stroke-width="2" stroke-miterlimit="10" x1="178.919" y1="364.313" x2="205.394" y2="344.063"/>
	
		<line fill="none" stroke="#A0D4FF" stroke-width="2" stroke-miterlimit="10" x1="214.808" y1="349.355" x2="235.413" y2="333.595"/>
	
		<line fill="none" stroke="#A0D4FF" stroke-width="2" stroke-miterlimit="10" x1="188.341" y1="364.116" x2="234.413" y2="328.876"/>
	<line fill="none" stroke="#A0D4FF" stroke-width="2" stroke-miterlimit="10" x1="74.066" y1="359.193" x2="100.541" y2="338.942"/>
	<line fill="none" stroke="#A0D4FF" stroke-width="2" stroke-miterlimit="10" x1="109.955" y1="344.235" x2="130.56" y2="328.475"/>
	<line fill="none" stroke="#A0D4FF" stroke-width="2" stroke-miterlimit="10" x1="83.488" y1="358.996" x2="129.56" y2="323.756"/>
	<line fill="none" stroke="#A0D4FF" stroke-width="2" stroke-miterlimit="10" x1="72.293" y1="298.48" x2="98.768" y2="278.229"/>
	
		<line fill="none" stroke="#A0D4FF" stroke-width="2" stroke-miterlimit="10" x1="108.182" y1="283.521" x2="128.787" y2="267.761"/>
	<line fill="none" stroke="#A0D4FF" stroke-width="2" stroke-miterlimit="10" x1="81.715" y1="298.283" x2="127.787" y2="263.042"/>
</g>
<g>
	<path fill="#0084FF" d="M513.194,385.535c-1.537-2.773-5.182-4.33-5.345-7.739c-0.142-2.962,3.87-9.152,1.225-11.702
		c-1.443-1.392-3.38-1.481-5.292-1.528c-2.516-0.062,0.273-5.786,0.802-7.079c1.25-3.059,5.115-9.762,2.087-12.906
		c-1.782-1.851-3.638-1.55-3.845-4.522c-0.106-1.543-1.053-3.158-1.592-4.583c-0.931-2.459,0.067-4.616,1.313-6.675
		c1.756-2.9,2.001-5.328,0.938-8.572c-1.58-4.82-4.15-5.853-2.194-11.538c2.547-7.4,2.37-11.783-1.715-18.501
		c-3.821-6.285-0.2-11.391,0.596-17.535c0.321-0.433,0.496-0.922,0.496-1.484c0-1.836-0.013-3.669-0.167-5.5
		c-0.118-1.401-1.05-2.442-2.5-2.5c-0.431-0.017-0.835-0.038-1.239-0.033c-0.519-0.011-0.949,0.083-1.445-0.038
		c-0.411-0.1-0.757-0.085-1.17-0.093c-0.228-0.004-2.216-0.677-2.254-0.375c-0.072,0.569-0.016,1.199-0.016,1.781
		c0,0.684-0.043,1.238,0.081,1.901c0.162,0.867,0.243,1.648,0.602,2.477c0.601,1.389,1.479,2.664,2.556,3.726
		c0.474,0.467,1.085,0.655,1.508,1.142c0.393,0.451,0.702,0.983,0.965,1.525c-1.129,4.649-3.395,8.825-1.119,13.887
		c2.786,6.197,6.194,9.72,3.79,17.087c-0.96,2.938-2.304,5.364-1.998,8.527c0.3,3.097,3.172,5.687,3.73,8.895
		c0.635,3.646-2.692,6.575-3.354,9.981c-0.613,3.162,2.406,6.167,1.923,9.615c-0.021,0.146,0.031,0.239,0.191,0.274
		c10.741,2.333-0.705,15.565-0.202,21.956c0.018,0.222,0.507,0.201,0.63,0.196c9.993-0.45,4.855,6.105,4.54,12.009
		c-0.163,3.042,1.762,4.481,3.75,6.566c3.475,3.644,3.093,8.273,3.1,12.959c0.001,0.447,2.175,0.104,2.174-0.582
		C514.735,392.836,515.047,388.877,513.194,385.535z"/>
	<path fill="#0084FF" d="M475.69,289.107c-3.722-0.626-0.239-5.424-0.784-7.635c-0.526-2.139-1.397-3.695-1.397-5.982
		c0.001-2.057,0.535-4.133,0.723-6.203c0.562-0.353,0.978-0.763,0.935-1.643c-0.003-0.047-0.005-0.094-0.007-0.141
		c-0.078-1.638-0.103-3.276-0.212-4.914c-0.228-3.409-0.565-6.81-0.713-10.224c-0.073-1.707-0.1-3.416-0.042-5.123
		c0.028-0.833,0.12-1.619,0.246-2.429c0.139-0.893-0.087-1.862-0.011-2.771c-0.967-0.602-1.992-0.501-3.092-0.501
		c-0.922,0-1.812-0.342-2.731-0.335c-0.943,0.007-1.88,0.089-2.815,0.163c-0.471,0.037-0.94,0.072-1.411,0.094
		c-0.019,1.023,0.032,2.162,0.206,3.16c0.099,0.569,0.303,1.146,0.49,1.71c0.065,0.196,0.11,0.398,0.166,0.597
		c0.196,0.699,0.446,1.175,0.492,1.907c0.052,0.826,0.123,1.651,0.213,2.474c0.181,1.649,0.434,3.29,0.749,4.918
		c0.63,3.255,1.508,6.46,2.562,9.604c0.158,0.47,0.413,0.825,0.718,1.097c0.161,0.667,0.235,1.381,0.59,1.972
		c0.313,0.521,0.482,1.087,0.692,1.653c0.011,0.029,0.023,0.05,0.035,0.076c-0.221,2.324-0.68,4.612-0.68,6.959
		c0,2.174,1.933,4.089,1.431,6.24c-0.543,2.322-2.257,5.804,1.268,6.396C473.991,290.342,476.483,289.24,475.69,289.107z"/>
	<path fill="#0084FF" d="M488.569,294.437c-3.569-0.857,0.014-3.703-0.287-5.658c-0.294-1.91-3.467-3.445-1.098-5.177
		c0.787-0.575,1.447-1.975,0.75-2.835c-1.537-1.896-1.025-5.121-0.684-7.85c0.442-0.57,0.787-1.278,0.991-1.753
		c0.529-1.231,0.509-2.459,0.551-3.791c0.106-3.397,0.045-6.799-0.182-10.191c-0.208-3.127-0.554-6.246-1.033-9.343
		c-0.17-1.098-1.396-1.814-2.411-1.835c-0.522-0.011-1.05,0.021-1.564,0.118c-0.257,0.048-0.407,0.092-0.643,0.034
		c-0.182-0.045-0.323-0.193-0.524-0.22c-0.342-0.046-0.646,0.074-1-0.008c-0.817-0.191-1.789-0.689-2.655-0.403
		c-0.752,0.248-0.696,1.32-0.696,1.937c0,1.466,0.188,2.904,0.3,4.358c0.106,1.391,0.394,2.757,0.629,4.13
		c0.51,2.973,1.053,5.952,1.958,8.834c0.454,1.444,0.999,2.86,1.667,4.219c0.634,1.289,1.441,2.395,1.738,3.817
		c0.012,0.056,0.025,0.112,0.036,0.169c-0.345,2.619-1.107,6.493,0.362,8.306c1.398,1.725-2.846,3.32-1.459,5.419
		c0.732,1.107,2.309,1.556,1.922,3.373c-0.234,1.105-0.862,2.123-1.131,3.234c-0.437,1.809,1.375,2.27,2.658,2.577
		C487.594,296.097,490.166,294.819,488.569,294.437z"/>
</g>
<g>
	<path fill="#81C2FC" d="M528.152,215.222c-2.968-0.246-5.548,0.634-6.844,3.465c-0.725,1.582-0.792,3.352-1.094,5.04
		c-0.122,0.679-0.194,1.665-0.705,2.167c-0.45,0.442-1.376,0.768-1.927,1.107c-0.84,0.518-1.796,0.772-2.67,1.273
		c-1.477,0.846-2.623,2.198-4.017,3.167c-1.369,0.952-2.839,1.56-4.146,2.642c-0.68,0.563-1.365,1.105-2.083,1.602
		c-0.688,0.476-1.442,0.729-2.135,1.246c-0.66,0.492-1.032,0.639-1.797,0.851c-0.385,0.106-0.77,0.215-1.153,0.327
		c-0.734,0.214-1.466,0.439-2.19,0.686c-1.251,0.426-2.452,0.854-3.741,1.177c-0.377,0.095-0.676,0.183-1.024,0.354
		c-0.569,0.279-1.251,0.378-1.893,0.348c1.554,0.306,3.108,0.608,4.657,0.939c1.551,0.332,3.07,0.696,4.597,1.054
		c0.093-0.055,0.19-0.102,0.306-0.123c0.485-0.086,1.278-0.327,1.764-0.176c0.762,0.237,1.631,0.12,2.378-0.595l0.234-0.211
		c0.463-0.417,1.562-0.359,2.129-0.636c0.588-0.287,1.043-0.789,1.591-1.175c1.18-0.832,2.494-1.448,3.692-2.249
		c1.517-1.013,3.108-1.709,4.754-2.581c1.498-0.794,2.536-2.163,3.999-3.005c1.674-0.963,3.449-1.525,4.244-3.413
		c0.619-1.472-0.875-3.159-2.368-3.191c0.27-0.967,0.431-1.973,0.597-2.971c0.41-2.471,0.8-5.143,3.875-4.888
		C528.676,217.575,530.109,215.384,528.152,215.222z"/>
	<path fill="#81C2FC" d="M496.038,237.146c0.101-0.04,0.197-0.084,0.291-0.132c0.958-0.488,2.244-1.264,3.11-1.935
		c0.762-0.59,1.353-1.344,2.061-1.996c1.34-1.235,3.083-2.098,4.564-3.146c2.203-1.558,4.387-3.26,6.275-5.194
		c1.753-1.795-1.47-3.28-3.102-2.565c-0.81,0.354-1.598,0.748-2.377,1.156c-0.208-1.171-0.386-2.344-0.268-3.526
		c0.209-2.077,3.468-5.465,5.572-5.72c1.497-0.181,2.327-2.076,0.334-1.835c-2.915,0.352-5.282,2.5-7.185,4.595
		c-2.224,2.448-1.645,5.173-1.192,8.009c-3.102,1.819-6.112,3.795-9.411,5.243c-1.705,0.749-3.423,1.493-5.019,2.458
		c-1.451,0.877-2.633,2.251-4.222,2.868c-0.832,0.323-1.725,0.44-2.554,0.709c-0.703,0.229-1.446,0.417-2.081,0.741
		c-0.649,0.331-1.18,0.736-1.877,0.956c-0.529,0.167-0.966,0.274-1.455,0.514c3.538,0.553,7.067,1.148,10.583,1.809
		c0.196-0.103,0.381-0.225,0.526-0.405c0.372-0.458,0.614-1.111,1.236-1.282c0.631-0.173,1.282-0.361,1.929-0.533
		C493.079,237.589,494.776,237.654,496.038,237.146z"/>
	<path fill="#81C2FC" d="M480.239,234.764c0.112-0.124,0.227-0.243,0.348-0.349c0.591-0.517,1.226-0.943,1.911-1.331
		c1.589-0.899,3.05-1.689,4.752-2.518c0.774-0.377,1.354-1.045,2.12-1.44c0.797-0.411,1.707-0.611,2.543-0.98
		c1.558-0.688,2.832-1.73,4.254-2.623c1.261-0.791,2.856-1.297,2.196-3.235c-0.505-1.481-2.257-2.034-3.625-1.443
		c-1.331,0.575-2.645,1.185-3.954,1.805c0.422-1.088,0.516-2.238,0.521-3.56c0.015-3.143,0.784-5.602,4.409-5.374
		c0.56,0.035,3.299-1.005,1.904-1.093c-2.687-0.168-5.568,0.11-7.665,1.969c-1.121,0.994-1.402,2.521-1.522,3.933
		c-0.184,2.165,0.048,4.01-1.107,5.824c-2.833,1.426-5.636,2.914-8.424,4.426c0.03-0.404,0.056-0.816,0.106-1.248
		c0.229-1.929,2.32-3.262,4.005-3.822c0.165-0.055,1.299-0.55,0.851-0.874c-0.478-0.345-1.394-0.024-1.874,0.135
		c-1.887,0.627-3.693,1.724-5.016,3.217c-1.043,1.178-0.881,2.765-1.112,4.239c-0.515,0.28-1.029,0.56-1.544,0.839
		c-0.389,0.21-0.817,0.394-1.186,0.636c-0.375,0.248-0.636,0.627-1.005,0.882c-0.45,0.312-0.926,0.651-1.417,0.896
		c-0.741,0.371-1.424,0.793-2.25,0.988c-0.854,0.201-1.546,0.308-2.29,0.835c-0.31,0.219-0.529,0.35-0.918,0.374
		c-0.331,0.021-0.706-0.069-0.999,0.073c-0.188,0.091-0.387,0.267-0.464,0.471c3.721,0.468,7.437,0.97,11.143,1.525l0.139-0.083
		c0.397-0.285,0.67-0.693,1.077-0.971c0.462-0.315,0.998-0.506,1.511-0.722c0.531-0.225,1.018-0.134,1.53-0.418
		C479.602,235.519,479.913,235.122,480.239,234.764z"/>
</g>
<g>
	<path fill="#3DA0FF" d="M490.766,240.678c-0.266,0.377-0.433,0.869-0.433,1.492c0,0.222,0,0.444,0,0.667
		c0,0.447,0.104,0.826,0.269,1.149c0.434,2.774,0.981,5.544,1.141,8.337c0.089,1.563,0.025,3.127-0.015,4.69
		c-0.021,0.778-0.034,1.557-0.02,2.334c0.013,0.697-0.04,1.374-0.041,2.069c0,0.366,0.112,0.691,0.183,1.042
		c0.069,0.347,0.126,0.695,0.191,1.042c0.04,0.216,0.037,0.335,0.251,0.397c0.166,0.048,0.332,0.09,0.5,0.124
		c0.516,0.103,1.012-0.011,1.542,0.02c0.383,0.022,0.775,0.153,1.166,0.146c0.301-0.005,0.592-0.073,0.897-0.063
		c0.833,0.026,1.657,0.11,2.48,0.151c0.166,0.008,0.358,0.007,0.523,0.036c0.172,0.03,0.462,0.188,0.624,0.127
		c-0.013-0.501-0.202-0.905-0.042-1.404c0.123-0.383,0.223-0.752,0.351-1.132c0.459-1.352,0.584-2.677,0.536-4.101
		c-0.04-1.226-0.196-2.442-0.272-3.665c-0.194-3.109,0.313-6.731-0.543-9.784c0.142-0.59,0.095-1.207-0.18-1.714
		c-1.489-0.348-2.972-0.704-4.484-1.028C493.854,241.283,492.31,240.982,490.766,240.678z"/>
	<path fill="#3DA0FF" d="M477.528,238.349c-0.037,0.105-0.08,0.204-0.106,0.323c-0.254,1.159-0.325,2.348-0.328,3.531
		c-0.001,0.482,0.008,0.921,0.172,1.378c0.16,0.444,0.483,0.826,0.602,1.284c0.135,0.518,0.168,1.239,0.174,1.763
		c0.439,0.138,0.915-0.021,1.349,0.142c0.322,0.121,0.533,0.287,0.902,0.355c0.46,0.085,0.844,0.114,1.292,0.283
		c1.069,0.401,2.223,0.234,3.251,0.678c0.624,0.27,1.295,0.314,1.957,0.549c0.29,0.103,0.81,0.327,1.045-0.009
		c0.137-0.196,0.052-0.797,0.039-1.042c-0.026-0.518-0.158-1.05-0.086-1.568c0.038-0.269,0.165-0.481,0.215-0.737
		c0.068-0.352,0.026-0.765,0.048-1.125c0.078-1.32,0.216-2.636,0.262-3.958C484.731,239.519,481.135,238.913,477.528,238.349z"/>
	<path fill="#3DA0FF" d="M464.418,240.999c0,0.343-0.083,0.726-0.008,1.064c0.098,0.436,0.262,0.417,0.675,0.55
		c1.644,0.529,3.401,0.559,5.125,1.011c0.681,0.179,1.413,0.248,2.083,0.498c0.667,0.249,1.454,1.035,2.195,0.911
		c0.009-1.42,0.219-2.742,0.572-4.102c0.247-0.95,0.476-1.912,0.563-2.888c-3.893-0.59-7.797-1.117-11.706-1.61
		c-0.055,0.457-0.057,0.908,0,1.314c0.076,0.55,0.347,1.008,0.458,1.542C464.487,239.824,464.418,240.445,464.418,240.999z"/>
</g>
<g>
	<path fill="#00FCCA" d="M424.201,170.263c-3.821,0.011-6.604,1.297-7.787,5.129c-0.859,2.786-0.571,5.884-1.094,8.732
		c-0.71,3.871-2.719,6.973-5.604,9.577c-6.586,5.944-14.138,10.617-20.615,16.779c-5.489,5.221-10.722,10.676-16.405,15.655
		c-5.91-1.562-11.467-3.889-17.716-4.655c1.463-2.056,5.209-5.011,5.869-5.571c2.942-2.496,6.373-4.894,8.096-8.446
		c2.678-5.52-8.84-19.177-2.779-21.982c1.825-0.844,0.162-1.929-1.176-1.31c-9.971,4.613,4.386,16.685,0.793,24.09
		c-2.133,4.396-8.335,7.77-11.897,11.087c-0.586,0.546-1.225,1.208-1.715,1.891c-9.472-0.368-18.917,3.157-27.939,5.413
		c-4.413,1.051-8.918,1.719-13.435,2.155c-0.338-6.397,7.793-11.828,12.3-15.538c6.022-4.959,9.456-11.132,10.297-18.929
		c0.165-1.532-2.795-1.156-2.941,0.201c-0.628,5.826-2.682,11.224-6.99,15.344c-2.996,2.866-6.425,5.26-9.462,8.09
		c-3.367,3.138-6.195,6.931-6.104,11.085c-4.851,0.361-9.696,0.477-14.434,0.477l-14.211,0.753
		c-0.016,0.063-0.295,0.311-0.307,0.372c10.162,1.658,20.199,3.322,30.491,3.349c0.004,0.007,2.396-0.006,2.396-0.006
		s2.703-0.053,4.048-0.118c23.236-1.119,46.668-0.785,69.636-2.777c4.228-0.367,8.44-0.511,12.641-0.508
		c0.371-0.182,0.738-0.368,1.075-0.584c-3.365-4.327-11.538-2.404-16.346-2.404c-2.915,0-5.644-0.409-8.284-1.011
		c10.685-9.13,19.975-19.791,31.325-28.209c3.992-2.96,8.148-5.608,10.646-10.036c1.234-2.188,1.769-4.838,1.982-7.315
		c0.202-2.342-0.125-9.526,3.784-9.537C422.981,171.505,425.651,170.259,424.201,170.263z"/>
</g>
<g>
	<g>
		<g>
			<g>
				<path fill="#531A00" d="M41.07,418.322c1.096-7.442,12.946-10.418,18.746-13.238c4.999-2.43,9.67-3.843,15.164-4.784
					c4.451-0.764,8.778-1.666,12.827-3.735c1.779-0.909,0.152-2.046-1.19-1.359c-5.657,2.891-12.034,3.285-18.153,4.634
					c-4.911,1.083-9.159,3.637-13.696,5.674c-5.685,2.553-15.544,5.91-16.607,13.126C37.975,419.897,40.91,419.409,41.07,418.322
					L41.07,418.322z"/>
			</g>
		</g>
		<g>
			<g>
				<path fill="#531A00" d="M78,423.379c3.564-7.995,12.135-12.915,19.552-16.822c7.776-4.095,16.093-7.299,24.501-9.827
					c1.737-0.522,1.303-2.217-0.452-1.689c-9.124,2.743-18.026,6.287-26.458,10.728c-7.56,3.982-16.25,9.302-19.874,17.43
					C74.645,424.598,77.556,424.376,78,423.379L78,423.379z"/>
			</g>
		</g>
		<g>
			<g>
				<path fill="#531A00" d="M108.732,430.833c-3.581-4.722,23.037-13.113,26.899-13.247c1.622-0.057,2.252-2.125,0.274-2.057
					c-4.75,0.164-35.524,9.057-29.831,16.562C106.847,433.108,109.613,431.993,108.732,430.833L108.732,430.833z"/>
			</g>
		</g>
		<g>
			<g>
				<path fill="#531A00" d="M158.108,424.576c5.432-5.532,12.46-7.111,18.973-10.847c5.435-3.116,8.926-7.397,12.458-12.463
					c0.835-1.199-2.114-1.075-2.732-0.188c-4.641,6.658-9.298,10.743-16.831,14.014c-5.316,2.309-10.128,4.645-14.239,8.831
					C154.5,425.185,157.331,425.368,158.108,424.576L158.108,424.576z"/>
			</g>
		</g>
		<g>
			<g>
				<path fill="#531A00" d="M205.027,404.435c1.971-6.898,9.561-10.481,15.673-12.945c6.51-2.624,13.71-4.232,20.716-4.616
					c1.657-0.091,2.218-2.278,0.244-2.17c-8.016,0.438-15.966,2.493-23.391,5.486c-6.708,2.704-14.076,7.084-16.182,14.452
					C201.688,406.044,204.66,405.722,205.027,404.435L205.027,404.435z"/>
			</g>
		</g>
		<g>
			<g>
				<path fill="#531A00" d="M201.307,437.575c11.26-5.892,20.238-15.263,30.753-22.309c9.761-6.541,20.881-12.194,27.994-21.86
					c1.088-1.479-1.652-1.849-2.414-0.813c-6.653,9.041-17.026,14.595-26.264,20.596c-10.811,7.023-19.886,16.744-31.336,22.735
					C198.285,436.843,199.868,438.328,201.307,437.575L201.307,437.575z"/>
			</g>
		</g>
		<g>
			<g>
				<path fill="#531A00" d="M247.808,441.903c1.958-9.007,16.546-6.479,22.555-11.301c1.537-1.232-0.835-2.004-1.88-1.166
					c-6.71,5.384-21.256,1.96-23.598,12.736C244.597,443.495,247.55,443.088,247.808,441.903L247.808,441.903z"/>
			</g>
		</g>
		<g>
			<g>
				<path fill="#531A00" d="M293.001,436.14c-0.025-8.475,11.592-13.224,18.495-14.814c1.801-0.415,1.287-2.252-0.493-1.842
					c-7.742,1.783-20.956,7.342-20.928,16.916C290.08,437.846,293.005,437.345,293.001,436.14L293.001,436.14z"/>
			</g>
		</g>
		<g>
			<g>
				<path fill="#531A00" d="M328.925,433.819c9.003-8.688,16.138-20.105,27.42-26.098c1.714-0.91-0.933-1.02-1.728-0.598
					c-11.688,6.207-19.031,17.795-28.35,26.787C325.528,434.625,328.36,434.363,328.925,433.819L328.925,433.819z"/>
			</g>
		</g>
		<g>
			<g>
				<path fill="#531A00" d="M368.276,426.54c4.004-0.638,7.019-4.307,9.761-6.986c5.943-5.808,13.216-10.921,21.4-12.801
					c1.773-0.407,1.337-1.947-0.414-1.545c-6.674,1.533-12.185,4.906-17.647,8.928c-2.032,1.496-3.871,3.115-5.681,4.875
					c-1.729,1.679-4.554,5.437-7.048,5.834C367.229,425.07,366.28,426.858,368.276,426.54L368.276,426.54z"/>
			</g>
		</g>
		<g>
			<g>
				<path fill="#531A00" d="M397.046,434.655c11.606-11.514,24.429-21.311,38.203-30.081c1.66-1.057-0.819-1.686-1.844-1.033
					c-13.965,8.891-26.957,18.825-38.721,30.495C393.44,435.27,396.281,435.413,397.046,434.655L397.046,434.655z"/>
			</g>
		</g>
		<g>
			<g>
				<path fill="#531A00" d="M446.33,433.598c1.19-5.633,6.956-9.849,11.301-13.077c5.546-4.121,14.188-10.138,21.421-9.654
					c0.574,0.038,3.306-1.023,1.896-1.117c-6.86-0.459-14.083,3.644-19.771,6.97c-6.266,3.663-16.064,9.682-17.698,17.414
					C443.358,434.702,446.188,434.27,446.33,433.598L446.33,433.598z"/>
			</g>
		</g>
		<g>
			<g>
				<path fill="#531A00" d="M469.357,450.349c3.726-9.798,14.946-11.821,23.873-14.587c1.747-0.541,1.269-2.417-0.5-1.869
					c-9.76,3.024-22.057,5.479-26.127,16.183C466.024,451.597,468.929,451.479,469.357,450.349L469.357,450.349z"/>
			</g>
		</g>
		<g>
			<g>
				<path fill="#531A00" d="M509.984,430.17c4.905-4.403,11.034-9.294,11.369-16.404c0.031-0.676-2.851-0.232-2.898,0.777
					c-0.31,6.585-6.229,11.27-10.748,15.326C506.514,430.94,509.392,430.702,509.984,430.17L509.984,430.17z"/>
			</g>
		</g>
		<g>
			<g>
				<path fill="#531A00" d="M525.586,452.188c8.317-10.585,17.36-20.765,31.063-23.803c1.778-0.395,1.338-1.927-0.412-1.539
					c-14.646,3.248-24.437,13.88-33.361,25.236C522.043,453.142,524.978,452.961,525.586,452.188L525.586,452.188z"/>
			</g>
		</g>
		<g>
			<g>
				<path fill="#531A00" d="M584.353,402.024c-0.238-7.663,12.942-12.333,18.337-15.385c6.074-3.437,13.449-7.656,15.316-14.904
					c0.36-1.397-2.607-1.053-2.936,0.221c-2.251,8.736-14.089,13.163-21.153,17.146c-4.753,2.681-12.701,6.68-12.5,13.144
					C581.464,403.771,584.393,403.321,584.353,402.024L584.353,402.024z"/>
			</g>
		</g>
		<g>
			<g>
				<path fill="#531A00" d="M617.509,351.389c6.92-5.572,9.276-14.812,15.959-20.627c5.024-4.372,12.846-8.284,13.388-15.746
					c0.112-1.549-2.843-1.164-2.941,0.199c-0.526,7.251-9.362,11.256-14.122,15.722c-5.848,5.486-7.921,13.984-14.225,19.06
					C614.034,351.231,616.349,352.322,617.509,351.389L617.509,351.389z"/>
			</g>
		</g>
		<g>
			<g>
				<path fill="#531A00" d="M658.866,296.231c1.974-9.816,18.685-8.612,26.08-11.596c1.855-0.749,0.194-2.119-1.238-1.541
					c-8.459,3.413-25.424,1.76-27.766,13.404C655.674,297.837,658.626,297.424,658.866,296.231L658.866,296.231z"/>
			</g>
		</g>
	</g>
</g>
<ellipse fill="#999999" cx="71.125" cy="219.375" rx="2.313" ry="1.5"/>
<ellipse fill="#B2B2B2" cx="91.125" cy="221.711" rx="2.313" ry="1.5"/>
<ellipse fill="#B2B2B2" cx="109.125" cy="223.211" rx="2.313" ry="1.5"/>
<ellipse fill="#B2B2B2" cx="130.1" cy="221.711" rx="2.313" ry="1.5"/>
<ellipse fill="#999999" cx="154.225" cy="224.711" rx="2.313" ry="1.5"/>
<ellipse fill="#999999" cx="183.1" cy="221.711" rx="2.313" ry="1.5"/>
<ellipse fill="#999999" cx="199.098" cy="220.211" rx="2.313" ry="1.5"/>
<ellipse fill="#7A7A7A" cx="216.928" cy="222.714" rx="2.313" ry="1.5"/>
<ellipse fill="#B2B2B2" cx="209.678" cy="221.214" rx="1.438" ry="0.933"/>
<ellipse fill="#B2B2B2" cx="191.5" cy="222.714" rx="1.438" ry="0.933"/>
<ellipse fill="#7A7A7A" cx="171.5" cy="224.214" rx="1.438" ry="0.933"/>
<ellipse fill="#B2B2B2" cx="167.875" cy="220.211" rx="1.438" ry="0.933"/>
<ellipse fill="#B2B2B2" cx="160.875" cy="221.711" rx="1.438" ry="0.933"/>
<ellipse fill="#999999" cx="145.875" cy="224.711" rx="1.438" ry="0.933"/>
<ellipse fill="#7A7A7A" cx="136.875" cy="224.711" rx="1.438" ry="0.933"/>
<ellipse fill="#999999" cx="125.625" cy="224.214" rx="1.438" ry="0.933"/>
<ellipse fill="#999999" cx="118.484" cy="222.146" rx="1.438" ry="0.933"/>
<ellipse fill="#7A7A7A" cx="99.625" cy="219.375" rx="1.438" ry="0.933"/>
<ellipse fill="#999999" cx="83.152" cy="218.711" rx="1.438" ry="0.933"/>
<ellipse fill="#7A7A7A" cx="76" cy="216.846" rx="1.438" ry="0.933"/>
<g>
	<g>
		<path fill="none" stroke="#000000" stroke-width="3" stroke-linecap="round" stroke-miterlimit="10" d="M508.698,115.75
			c0,0-0.918,0.56-2.562,1.552"/>
		
			<path fill="none" stroke="#000000" stroke-width="3" stroke-linecap="round" stroke-miterlimit="10" stroke-dasharray="6.1063,8.1417" d="
			M499.155,121.485c-16.165,9.621-48.747,28.589-64.905,35.015c-22,8.75-70,22.159-104.25,30.705
			c-25.875,6.456-48.873,27.008-58.572,36.672"/>
		<path fill="none" stroke="#000000" stroke-width="3" stroke-linecap="round" stroke-miterlimit="10" d="M268.577,226.792
			c-1.326,1.394-2.034,2.2-2.034,2.2"/>
	</g>
</g>
<path fill="none" stroke="#000000" stroke-width="3" stroke-miterlimit="10" d="M66,210.25c0,0,35.074,10,61.787,9.25
	s51.401-4.673,69.807-4.586s66.635,12.688,66.906,13.709"/>
<g>
	<path fill="#81C2FC" d="M583.102,146.311c-1.295-3.59-7.077,1.212-8.429,2.348c-4.292,3.609-9.665,6.212-12.478,11.267
		c-1.126,2.024,3.069,2.108,3.943,0.482c2.013-3.746,5.892-5.89,9.008-8.613c1.983-1.733,3.615-4.756,6.585-4.466
		C582.207,147.375,583.355,147.014,583.102,146.311z"/>
	<path fill="#81C2FC" d="M592.61,144.118c-4.516-1.022-7.945,3.215-9.764,6.717c-4.091,7.878-14.178,8.873-19.336,15.694
		c-1.083,1.431,3.223,0.904,3.979-0.059c3.425-4.358,9.017-5.644,12.953-9.427c1.495-1.437,3.095-2.726,4.474-4.279
		c2.502-2.818,1.938-6.735,6.83-7.557C592.165,145.137,593.765,144.379,592.61,144.118z"/>
	<path fill="#81C2FC" d="M599.175,145.401c-4.806,0.485-8.401,6.114-11.778,9.022c-5.193,4.471-10.674,11.516-17.121,13.783
		c-2.642,0.929-1.922,3.877,0.783,2.923c5.738-2.024,8.777-5.388,13.131-9.53c2.469-2.349,5.196-4.385,7.716-6.673
		c1.993-1.811,4.792-6.244,7.411-7.078C601.011,147.307,601.359,145.18,599.175,145.401z"/>
	<path fill="#81C2FC" d="M581.992,167.243c4.705-0.35,9.506-3.4,13.393-5.882c5.181-3.309,8.406-9.145,12.295-13.755
		c0.198-0.235-2.642-0.188-3.218,0.461c-2.753,3.1-5.151,6.489-8.015,9.491c-3.237,3.393-8.708,7.412-13.365,8.428
		C582.317,166.152,579.82,167.404,581.992,167.243z"/>
	<path fill="#81C2FC" d="M597.236,165.698c4.075-2.272,6.469-6.559,10.574-8.597c3.729-1.851,7.059-4.96,9.308-8.474
		c1-1.562-3.392-0.98-4.07,0.08c-1.417,2.213-3.405,4.165-5.323,5.952c-1.634,1.521-4.192,2.064-5.988,3.468
		c-1.846,1.442-3.106,3.529-4.853,5.084c-0.858,0.764-1.769,1.315-1.606,2.534C595.365,166.398,596.968,165.847,597.236,165.698z"/>
</g>
<line fill="none" stroke="#000000" stroke-width="2.0117" stroke-miterlimit="10" x1="138.375" y1="228.992" x2="138.375" y2="387.625"/>
<path fill="none" stroke="#000000" stroke-width="2" stroke-miterlimit="10" d="M160.875,228.655v138.189
	c0,0-3.063,16.843-9.563,19.155"/>
<g>
	<polygon points="159.375,358.313 152.467,354.323 152.467,357.313 138.375,357.313 138.375,359.313 152.467,359.313 
		152.467,362.302 	"/>
	<polygon points="159.375,329.188 152.467,325.198 152.467,328.188 138.375,328.188 138.375,330.188 152.467,330.188 
		152.467,333.177 	"/>
	<polygon points="159.375,302.271 152.467,298.282 152.467,301.271 138.375,301.271 138.375,303.271 152.467,303.271 
		152.467,306.261 	"/>
	<polygon points="159.375,265.896 152.467,261.907 152.467,264.896 138.375,264.896 138.375,266.896 152.467,266.896 
		152.467,269.886 	"/>
	<polygon points="159.375,236.084 152.467,232.095 152.467,235.084 138.375,235.084 138.375,237.084 152.467,237.084 
		152.467,240.073 	"/>
	<polygon points="150.56,385.788 143.652,381.799 143.652,384.788 138.375,384.788 138.375,386.788 143.652,386.788 
		143.652,389.777 	"/>
</g>
<path d="M274.022,209.028c0-1.872-3.88-3.389-8.667-3.389c-4.787,0-8.667,1.517-8.667,3.389c0,1.705,3.224,3.112,7.417,3.35v33.039
	h2.499v-33.039C270.797,212.141,274.022,210.733,274.022,209.028z"/>
<g>
	<text transform="matrix(1 0 0 1 138.375 401.1729)" font-family="'MyriadPro-Bold'" font-size="12">V</text>
	<text transform="matrix(1 0 0 1 142.375 248.8032)" font-family="'MyriadPro-Bold'" font-size="12">V</text>
	<text transform="matrix(1 0 0 1 251.125 411.6729)" font-family="'MyriadPro-Bold'" font-size="12">BEDROCK</text>
	<text transform="matrix(1 0 0 1 233.375 302.2715)" font-family="'MyriadPro-Bold'" font-size="12">ICE</text>
	<text transform="matrix(1 0 0 1 511.375 134.5)" font-family="'MyriadPro-Bold'" font-size="12">ICE</text>
	<text transform="matrix(1 0 0 1 363.5 281.8965)" font-family="'MyriadPro-Bold'" font-size="12">MOULIN</text>
	<text transform="matrix(1 0 0 1 501.9316 203.75)" font-family="'MyriadPro-Bold'" font-size="12">CREVASSES</text>
	<text transform="matrix(1 0 0 1 331.25 235.0215)" font-family="'MyriadPro-Bold'" font-size="12">LAKE</text>
	<text transform="matrix(1 0 0 1 116.375 209.855)" font-family="'MyriadPro-Bold'" font-size="12">FIRN</text>
	<text transform="matrix(1 0 0 1 268.5 203.75)" font-family="'MyriadPro-Bold'" font-size="12">GPS</text>
	<text transform="matrix(1 0 0 1 360 161.4487)" font-family="'MyriadPro-Bold'" font-size="12">EQ. LINE</text>
	<text transform="matrix(1 0 0 1 452.875 172)" font-family="'MyriadPro-Bold'" font-size="12">MOULINS</text>
	<text transform="matrix(1 0 0 1 150.5601 252.6855)" font-family="'MyriadPro-Bold'" font-size="8">S</text>
	<text transform="matrix(1 0 0 1 147.3125 405.9805)" font-family="'MyriadPro-Bold'" font-size="8">BS</text>
</g>
</svg>
